<?xml version="1.0" encoding="utf-8"?>
<!-- Generator: Adobe Illustrator 16.0.1, SVG Export Plug-In . SVG Version: 6.00 Build 0)  -->
<!DOCTYPE svg PUBLIC "-//W3C//DTD SVG 1.1//EN" "http://www.w3.org/Graphics/SVG/1.1/DTD/svg11.dtd">
<svg version="1.1" id="Layer_1" xmlns="http://www.w3.org/2000/svg" xmlns:xlink="http://www.w3.org/1999/xlink" x="0px" y="0px"
	 width="400px" height="400px" viewBox="0 0 400 400" enable-background="new 0 0 400 400" xml:space="preserve">
<path fill="#00509E" d="M296.691,114.48c0,5.559,0.111,10.355,0.435,14.497h-8.498l-0.546-8.609h-0.219
	c-2.396,4.249-8.067,9.81-17.44,9.81c-8.283,0-18.202-4.687-18.202-23.107V76.222h9.593v29.102c0,10.029,3.162,16.896,11.771,16.896
	c6.431,0,10.897-4.471,12.643-8.828c0.545-1.308,0.871-3.052,0.871-4.903V76.222h9.593V114.48z"/>
<path fill="#00509E" d="M307.497,119.277c2.942,1.744,7.959,3.707,12.754,3.707c6.865,0,10.135-3.38,10.135-7.848
	c0-4.579-2.725-6.976-9.7-9.592c-9.593-3.488-14.061-8.611-14.061-14.932c0-8.501,6.976-15.478,18.202-15.478
	c5.343,0,10.029,1.416,12.861,3.268l-2.287,6.977c-2.073-1.307-5.888-3.158-10.79-3.158c-5.671,0-8.721,3.268-8.721,7.191
	c0,4.36,3.05,6.321,9.919,9.049c9.047,3.38,13.842,7.956,13.842,15.804c0,9.372-7.303,15.914-19.619,15.914
	c-5.778,0-11.118-1.529-14.821-3.709L307.497,119.277z"/>
<path fill="#00509E" d="M355.53,104.346c0.219,12.97,8.394,18.309,18.094,18.309c6.87,0,11.118-1.201,14.605-2.724l1.745,6.865
	c-3.377,1.528-9.262,3.38-17.656,3.38c-16.238,0-25.942-10.789-25.942-26.703c0-15.916,9.373-28.342,24.74-28.342
	c17.333,0,21.801,15.04,21.801,24.744c0,1.962-0.108,3.375-0.327,4.469H355.53z M383.655,97.476
	c0.107-5.994-2.509-15.475-13.3-15.475c-9.812,0-13.953,8.828-14.714,15.475H383.655z"/>
<path fill="#00509E" d="M251.776,43.616c2.832,0,4.683,0.542,6.101,1.196l1.311-7.412c-1.849-0.761-4.688-1.521-8.176-1.521
	c-4.468,0-9.267,1.409-12.862,4.904c-4.36,4.249-6.106,11.005-6.106,18.42v2.508h-7.3v7.299h7.3h1.56v12.878h-0.219
	c-2.397-4.145-7.737-7.959-15.911-7.959c-12.755,0-23.765,10.681-23.656,28.23c0,16.021,9.921,26.818,22.676,26.818
	c8.606,0,14.932-4.472,17.763-10.357h0.326l0.437,9.158h6.946c-0.22-3.606-0.438-8.943-0.438-13.628v-45.14h12.759v-7.299h-12.759
	v-2.838C241.526,50.697,243.602,43.616,251.776,43.616z M233.603,105.647c0,1.526-0.107,2.836-0.436,4.141
	c-1.742,7.085-7.631,11.451-14.063,11.451c-10.247,0-15.584-8.837-15.584-19.519c0-11.553,5.884-20.267,15.804-20.267
	c7.193,0,12.426,5.009,13.844,11.004c0.328,1.2,0.436,2.835,0.436,4.033V105.647z"/>
<path fill="#00509E" d="M53.018,127.12c-2.507,1.201-8.067,3.052-15.151,3.052c-15.914,0-26.268-10.79-26.268-26.922
	c0-16.239,11.117-28.121,28.338-28.121c5.668,0,10.683,1.416,13.298,2.833l-2.18,7.303c-2.289-1.2-5.886-2.507-11.118-2.507
	c-12.098,0-18.638,9.043-18.638,19.944c0,12.212,7.847,19.732,18.311,19.732c5.449,0,9.047-1.312,11.771-2.506L53.018,127.12z"/>
<path fill="#00509E" d="M62.467,51.588h9.592v77.383h-9.592V51.588z"/>
<path fill="#00509E" d="M132.133,102.159c0,19.509-13.625,28.013-26.27,28.013c-14.169,0-25.286-10.464-25.286-27.141
	c0-17.548,11.662-27.901,26.16-27.901C121.887,75.129,132.133,86.138,132.133,102.159z M90.387,102.703
	c0,11.557,6.54,20.277,15.913,20.277c9.157,0,16.023-8.609,16.023-20.493c0-8.938-4.469-20.167-15.805-20.167
	C95.292,82.321,90.387,92.788,90.387,102.703z"/>
<path fill="#00509E" d="M184.575,114.475c0,5.561,0.109,10.357,0.436,14.496h-8.5l-0.545-8.609h-0.218
	c-2.398,4.252-8.067,9.81-17.441,9.81c-8.284,0-18.201-4.685-18.201-23.105v-30.85h9.59v29.104c0,10.027,3.161,16.894,11.772,16.894
	c6.431,0,10.899-4.47,12.644-8.828c0.545-1.306,0.873-3.05,0.873-4.902V76.217h9.591V114.475z"/>
<g>
	<path d="M353.848,164.637"/>
</g>
<g>
	<path d="M193.547,326.01"/>
</g>
<g>
	<path d="M245.775,195.855"/>
</g>
<g>
	<path d="M102.024,199.043"/>
</g>
<g>
	<path d="M325.021,323.225"/>
</g>
<g>
	<path d="M379.015,181.319"/>
</g>
<g>
	<path fill="#A2ACB4" d="M78.841,196.837c-2.824,9.108-6.374,17.787-10.284,26.355c-3.93,8.543-8.298,16.876-13.095,24.948
		c-9.592,16.133-20.916,31.258-34.09,44.559c12.73-13.725,23.499-29.148,32.496-45.472c4.498-8.166,8.556-16.567,12.167-25.146
		c3.582-8.568,6.834-17.364,9.264-26.218l0.015-0.057c0.269-0.979,1.28-1.555,2.259-1.286c0.979,0.269,1.555,1.28,1.286,2.259
		C78.854,196.796,78.847,196.821,78.841,196.837z"/>
</g>
<g>
	<path fill="#A2ACB4" d="M39.977,187.103c-1.719,5.738-3.858,11.178-6.268,16.556c-2.42,5.357-5.15,10.572-8.238,15.564
		c-3.089,4.988-6.542,9.758-10.443,14.129c-3.898,4.365-8.257,8.333-13.102,11.573c4.668-3.49,8.777-7.652,12.401-12.167
		c3.626-4.52,6.777-9.396,9.557-14.461c2.778-5.068,5.188-10.331,7.284-15.706c2.077-5.365,3.913-10.899,5.249-16.4l0.012-0.049
		c0.24-0.987,1.234-1.592,2.221-1.353s1.592,1.234,1.353,2.221C39.995,187.039,39.985,187.074,39.977,187.103z"/>
</g>
<g>
	<path fill="#A2ACB4" d="M117.562,202.639c-1.583,6.296-3.544,12.338-5.643,18.382c-2.11,6.026-4.404,11.98-6.848,17.869
		c-4.89,11.776-10.38,23.288-16.381,34.517c-12.009,22.453-26.08,43.767-41.93,63.621c15.367-20.23,28.886-41.834,40.299-64.469
		c5.703-11.317,10.884-22.894,15.455-34.694c2.283-5.901,4.415-11.858,6.358-17.869c1.926-6,3.737-12.104,5.105-18.164l0.01-0.045
		c0.224-0.991,1.208-1.612,2.197-1.388c0.99,0.224,1.611,1.208,1.388,2.198C117.57,202.607,117.565,202.627,117.562,202.639z"/>
</g>
<g>
	<path fill="#A2ACB4" d="M159.144,207.606c-3.925,12.462-8.456,24.606-13.253,36.681c-4.814,12.058-9.966,23.974-15.434,35.739
		c-10.94,23.525-23.14,46.461-36.748,68.517c13.083-22.371,24.717-45.555,35.073-69.271c5.174-11.86,10.028-23.857,14.538-35.976
		c4.486-12.114,8.727-24.372,12.296-36.717l0.01-0.035c0.282-0.976,1.301-1.537,2.276-1.255c0.975,0.281,1.537,1.301,1.255,2.275
		C159.153,207.575,159.147,207.595,159.144,207.606z"/>
</g>
<g>
	<path fill="#A2ACB4" d="M195.151,205.778c-3.089,11.72-6.931,23.064-11.054,34.354c-4.147,11.266-8.669,22.385-13.512,33.354
		c-9.691,21.939-20.663,43.289-32.808,63.929c11.612-20.942,22.018-42.537,31.118-64.649c4.546-11.057,8.766-22.243,12.603-33.553
		c3.806-11.3,7.354-22.763,10.075-34.276l0.012-0.05c0.233-0.987,1.223-1.599,2.211-1.365s1.599,1.223,1.366,2.211
		C195.159,205.745,195.154,205.766,195.151,205.778z"/>
</g>
<g>
	<path fill="#A2ACB4" d="M230.524,204.049c-1.472,6.303-3.25,12.402-5.131,18.514c-1.891,6.096-3.922,12.142-6.064,18.146
		c-4.289,12.006-9.021,23.841-14.117,35.51c-10.199,23.336-21.849,46.008-34.725,67.933c12.345-22.229,23.429-45.145,33.033-68.647
		c4.798-11.752,9.226-23.651,13.203-35.69c1.986-6.021,3.859-12.075,5.589-18.165c1.714-6.081,3.344-12.239,4.615-18.352
		l0.009-0.038c0.206-0.994,1.18-1.632,2.173-1.426c0.994,0.207,1.632,1.181,1.425,2.174
		C230.531,204.018,230.526,204.038,230.524,204.049z"/>
</g>
<g>
	<path fill="#A2ACB4" d="M263.959,198.475c-3.467,13.757-7.507,27.271-11.827,40.723c-4.337,13.439-9.023,26.762-14.071,39.942
		c-10.109,26.35-21.624,52.186-35.203,76.902c13.038-25.005,23.968-51.042,33.48-77.541c4.748-13.255,9.132-26.638,13.162-40.121
		c4.01-13.479,7.752-27.08,10.879-40.736l0.007-0.029c0.227-0.989,1.212-1.608,2.201-1.381s1.607,1.212,1.381,2.201
		C263.966,198.446,263.961,198.465,263.959,198.475z"/>
</g>
<g>
	<path fill="#A2ACB4" d="M299.27,177.972c-0.669,4.183-1.552,8.187-2.487,12.228c-0.942,4.026-1.967,8.027-3.049,12.01
		c-2.166,7.964-4.562,15.854-7.113,23.689c-5.109,15.669-10.843,31.113-16.987,46.382c-12.312,30.533-26.263,60.359-41.245,89.629
		c14.435-29.543,27.818-59.606,39.534-90.299c5.847-15.348,11.275-30.854,16.07-46.541c2.394-7.845,4.629-15.734,6.631-23.675
		c1-3.971,1.94-7.954,2.798-11.949c0.846-3.982,1.652-8.031,2.208-11.978l0.006-0.043c0.142-1.005,1.071-1.705,2.076-1.563
		c1.005,0.142,1.705,1.071,1.563,2.076C299.273,177.946,299.271,177.964,299.27,177.972z"/>
</g>
<g>
	<path fill="#A2ACB4" d="M352.501,163.148c-1.604,7.843-3.587,15.477-5.682,23.122c-2.106,7.63-4.376,15.209-6.77,22.746
		c-4.791,15.072-10.075,29.976-15.744,44.724c-11.349,29.494-24.23,58.367-38.322,86.614c13.541-28.515,25.85-57.609,36.601-87.257
		c5.371-14.824,10.351-29.787,14.831-44.89c2.238-7.552,4.351-15.139,6.297-22.763c1.93-7.614,3.764-15.306,5.174-22.958
		l0.008-0.039c0.184-0.998,1.142-1.658,2.14-1.474s1.658,1.142,1.475,2.14C352.506,163.122,352.502,163.14,352.501,163.148z"/>
</g>
<g>
	<path fill="#A2ACB4" d="M377.025,158.725c-1.826,7.588-4.063,14.902-6.384,22.247c-2.336,7.325-4.818,14.594-7.397,21.827
		c-5.162,14.464-10.71,28.775-16.505,42.98c-11.604,28.407-24.193,56.386-37.387,84.063c12.638-27.935,24.66-56.148,35.679-84.74
		c5.502-14.297,10.752-28.688,15.608-43.204c2.425-7.257,4.753-14.546,6.929-21.873c2.154-7.314,4.25-14.719,5.863-22.072
		l0.012-0.052c0.218-0.992,1.197-1.619,2.188-1.401c0.991,0.218,1.619,1.198,1.401,2.189
		C377.031,158.698,377.027,158.716,377.025,158.725z"/>
</g>
<g>
	<path fill="#A2ACB4" d="M391.229,172.251c-3.367,11.612-7.131,23.025-11.084,34.4c-3.964,11.362-8.162,22.64-12.595,33.821
		c-8.871,22.358-18.659,44.355-29.672,65.717c10.464-21.635,19.675-43.843,27.955-66.372c4.137-11.267,8.036-22.617,11.698-34.041
		c3.646-11.419,7.116-22.929,10.148-34.479l0.007-0.024c0.257-0.981,1.262-1.568,2.243-1.311c0.982,0.258,1.569,1.263,1.312,2.244
		C391.237,172.219,391.232,172.239,391.229,172.251z"/>
</g>
<g>
	<path fill="#A2ACB4" d="M398.191,197.559c-0.118,1.129-0.297,2.049-0.49,3.041c-0.195,0.972-0.412,1.931-0.644,2.883
		c-0.464,1.903-0.983,3.781-1.537,5.645c-1.109,3.725-2.355,7.392-3.679,11.023c-2.653,7.262-5.617,14.385-8.749,21.423
		c-6.276,14.073-13.22,27.812-20.492,41.358c6.727-13.824,13.111-27.818,18.799-42.072c2.837-7.127,5.499-14.321,7.835-21.602
		c1.165-3.641,2.248-7.303,3.188-10.986c0.468-1.842,0.9-3.689,1.272-5.537c0.186-0.924,0.356-1.848,0.504-2.767
		c0.142-0.9,0.279-1.878,0.327-2.664l0.003-0.048c0.062-1.013,0.935-1.784,1.947-1.722c1.014,0.062,1.784,0.934,1.722,1.948
		C398.196,197.505,398.193,197.536,398.191,197.559z"/>
</g>
<g>
	<path fill="#A2ACB4" d="M327,168.652c-1.047,7.664-2.653,15.048-4.403,22.458c-1.77,7.389-3.764,14.715-5.922,21.987
		c-4.322,14.542-9.296,28.872-14.743,43.008c-10.91,28.27-23.702,55.763-37.797,82.532c13.55-27.049,25.769-54.77,36.075-83.176
		c5.146-14.203,9.811-28.577,13.815-43.122c1.999-7.272,3.831-14.589,5.438-21.946c1.581-7.341,3.033-14.794,3.885-22.142
		l0.007-0.06c0.116-1.008,1.028-1.73,2.037-1.614c1.008,0.117,1.73,1.029,1.613,2.037C327.004,168.624,327.002,168.643,327,168.652z
		"/>
</g>
<g>
	<path fill="#00509E" d="M92.179,174.33c-1.119,0.586-3.783,1.706-7.461,1.706c-7.408,0-12.311-5.383-12.311-13.111
		c0-8.101,5.543-13.644,13.217-13.644c3.145,0,5.704,0.907,6.716,1.599l-0.906,2.078c-1.28-0.693-3.251-1.491-6.077-1.491
		c-6.875,0-10.393,5.275-10.393,11.298c0,6.663,4.21,11.032,10.126,11.032c3.038,0,5.01-0.852,6.396-1.439L92.179,174.33z"/>
	<path fill="#00509E" d="M98.303,157.542c0-2.559-0.107-5.223-0.213-7.676h2.345l0.107,5.171h0.107
		c1.119-3.198,3.784-5.757,7.301-5.757c0.32,0,0.693,0.053,1.013,0.106v2.453c-0.373-0.107-0.747-0.107-1.226-0.107
		c-3.518,0-6.022,3.038-6.715,7.141c-0.106,0.747-0.213,1.599-0.213,2.453v14.123h-2.505V157.542z"/>
	<path fill="#00509E" d="M113.809,162.392c0,8.207,4.477,11.405,9.753,11.405c3.731,0,5.649-0.747,7.088-1.439l0.64,2.026
		c-0.959,0.533-3.57,1.653-8.047,1.653c-7.354,0-11.938-5.383-11.938-12.898c0-8.528,4.903-13.857,11.512-13.857
		c8.367,0,9.966,7.888,9.966,11.565c0,0.692,0,1.12-0.106,1.546H113.809z M130.118,160.366c0.053-3.57-1.439-9.007-7.621-9.007
		c-5.649,0-8.102,5.064-8.528,9.007H130.118z"/>
	<path fill="#00509E" d="M155.16,169.374c0,2.026,0.107,4.104,0.373,6.076h-2.292l-0.373-3.678h-0.161
		c-1.225,1.974-4.05,4.265-8.154,4.265c-5.117,0-7.515-3.625-7.515-7.036c0-5.916,5.224-9.487,15.616-9.38v-0.639
		c0-2.558-0.48-7.622-6.556-7.568c-2.238,0-4.583,0.586-6.396,1.918l-0.799-1.864c2.292-1.547,5.169-2.186,7.462-2.186
		c7.408,0,8.793,5.543,8.793,10.126V169.374z M152.655,161.751c-5.596-0.16-12.952,0.693-12.952,6.822
		c0,3.678,2.452,5.331,5.117,5.331c4.264,0,6.663-2.612,7.568-5.117c0.16-0.533,0.267-1.065,0.267-1.545V161.751z"/>
	<path fill="#00509E" d="M166.986,144.217v5.649h7.302v2.025h-7.302v16.63c0,3.25,1.012,5.329,3.731,5.329
		c1.332,0,2.292-0.213,2.932-0.427l0.319,1.972c-0.854,0.373-2.025,0.641-3.57,0.641c-1.867,0-3.412-0.641-4.371-1.866
		c-1.173-1.332-1.599-3.465-1.599-6.075v-16.203h-4.317v-2.025h4.317v-4.688L166.986,144.217z"/>
	<path fill="#00509E" d="M183.237,142.565c0,1.173-0.8,2.185-2.131,2.185c-1.173,0-1.973-1.012-1.973-2.185
		c0-1.172,0.907-2.238,2.079-2.238C182.437,140.328,183.237,141.34,183.237,142.565z M179.932,175.449v-25.583h2.505v25.583H179.932
		z"/>
	<path fill="#00509E" d="M190.269,149.866l5.969,15.883c1.013,2.505,1.812,4.69,2.505,6.822h0.107
		c0.746-2.132,1.652-4.371,2.612-6.822l6.075-15.883h2.664l-10.392,25.583h-2.239l-10.02-25.583H190.269z"/>
	<path fill="#00509E" d="M215.153,162.392c0,8.207,4.478,11.405,9.755,11.405c3.73,0,5.648-0.747,7.087-1.439l0.639,2.026
		c-0.958,0.533-3.571,1.653-8.045,1.653c-7.357,0-11.94-5.383-11.94-12.898c0-8.528,4.902-13.857,11.513-13.857
		c8.367,0,9.966,7.888,9.966,11.565c0,0.692,0,1.12-0.106,1.546H215.153z M231.462,160.366c0.052-3.57-1.438-9.007-7.621-9.007
		c-5.649,0-8.103,5.064-8.527,9.007H231.462z"/>
</g>
</svg>
